# xmcd CD database file
#
# Track frame offsets:
#	150
#	56677
#	110419
#	149701
#	207237
#	259425
#	299919
#
# Disc length: 4625 seconds
#
# Revision: 0
# Processed by: cddbd v1.5.2PL0 Copyright (c) Steve Scherf et al.
# Submitted via: CDex 1.78
#
DISCID=7e120f07
DTITLE=Variuos - Hanuman Chalisa CD1
DYEAR=2006
DGENRE=India devotional
TTITLE0=Suresh Wadkar - Hanuman Chalisa
TTITLE1=Kavita Krishnamoorty - Hanuman Chalisa
TTITLE2=Vinod Rathod - Hanuman Chalisa
TTITLE3=Pamela Jain - Hanuman Chalisa
TTITLE4=Ravindra Sathe - Hanuman Chalisa
TTITLE5=Udit Narayan - Sankatmochan Ashtak
TTITLE6=Parthiv Gohil - Jai Hanuman 
EXTD=YEAR: 2006
EXTT0=
EXTT1=
EXTT2=
EXTT3=
EXTT4=
EXTT5=
EXTT6=
PLAYORDER=
